<svg width="80" height="22" viewBox="0 0 80 22" fill="none" xmlns="http://www.w3.org/2000/svg">
<path d="M70.176 9.09599V13.5858H73.648V15.6977C73.376 15.8639 73.072 15.9803 72.72 16.0635C72.368 16.1466 71.904 16.1799 71.328 16.1799C70.608 16.1799 69.968 16.0635 69.376 15.8141C68.784 15.5813 68.272 15.232 67.856 14.7831C67.424 14.3341 67.104 13.802 66.864 13.1867C66.624 12.5714 66.496 11.8896 66.496 11.1413V11.0748C66.496 10.3598 66.608 9.69463 66.832 9.07936C67.056 8.48073 67.376 7.9486 67.776 7.51625C68.176 7.06727 68.672 6.73469 69.232 6.48526C69.792 6.23583 70.4 6.1028 71.056 6.1028C71.904 6.1028 72.704 6.26909 73.44 6.58503C74.176 6.90098 74.88 7.34996 75.552 7.9486L79.344 3.19274C78.24 2.19501 76.992 1.39683 75.584 0.848073C74.176 0.282691 72.608 0 70.848 0C69.248 0 67.76 0.282691 66.4 0.831444C65.04 1.3802 63.856 2.14512 62.848 3.14286C61.84 4.12396 61.056 5.28798 60.496 6.63492C60 7.81557 59.728 9.09599 59.664 10.4429L55.584 0.29932H48.864L43.072 14.6999V0.44898H35.984L31.632 7.86546L27.296 0.44898H20.224V5.17158C19.888 4.53968 19.488 3.95767 19.04 3.42555C18.144 2.37793 17.024 1.54649 15.664 0.931217C14.304 0.315949 12.688 0 10.848 0C9.264 0 7.808 0.282691 6.48 0.848073C5.152 1.41345 4 2.19501 3.04 3.19274C2.08 4.19048 1.328 5.3545 0.8 6.68481C0.272 8.01512 0 9.4452 0 10.9751V11.0582C0 12.6878 0.288 14.1844 0.848 15.5314C1.424 16.8783 2.208 18.0257 3.232 18.9735C4.256 19.9214 5.456 20.6531 6.864 21.1852C8.272 21.7173 9.808 21.9834 11.504 21.9834C13.648 21.9834 15.488 21.6009 17.008 20.8193C17.76 20.4369 18.432 19.9879 19.056 19.489L15.648 15.1988C15.232 15.5147 14.8 15.7642 14.384 15.9471C13.632 16.2797 12.8 16.446 11.904 16.446C10.72 16.446 9.712 16.1633 8.912 15.5979C8.24 15.1156 7.744 14.4339 7.424 13.5359H20.208V21.5344H26.816V11.0915L31.504 18.5911H31.616L36.304 11.0915V21.551H47.552L48.592 18.7241H55.696L56.768 21.551H64.128L63.168 19.1731C64.16 20.0544 65.296 20.7362 66.592 21.2184C67.968 21.7339 69.456 22 71.04 22C72.896 22 74.576 21.7173 76.08 21.1353C77.584 20.5533 78.896 19.7884 80 18.8571V9.09599H70.176ZM7.184 9.07936C7.408 7.99849 7.808 7.11716 8.416 6.46863C9.056 5.78685 9.872 5.43764 10.88 5.43764C11.904 5.43764 12.752 5.78685 13.424 6.46863C14.048 7.11716 14.448 7.99849 14.592 9.07936H7.184V9.07936ZM50.304 13.7188L52.16 8.59713L54.016 13.7188H50.304Z" fill="white"/>
</svg>
