<svg width="181" height="85" viewBox="0 0 181 85" fill="none" xmlns="http://www.w3.org/2000/svg">
<path d="M65.2344 0.965923C62.8097 1.35912 60.6792 1.96639 58.845 2.78482C57.0093 3.6047 55.24 4.66925 53.5361 5.97991C50.3243 8.60194 48.2425 11.8625 47.2938 15.761C46.3428 19.6609 45.8681 24.4295 45.8681 30.0653V34.7837V55.4286C45.8681 56.5441 45.9664 57.3626 46.163 57.8868L46.3595 58.3776C46.7527 59.2965 47.309 59.7538 48.0306 59.7538V59.9504H40.5592V59.8521C41.149 59.788 41.6565 59.3781 42.0832 58.6237C42.5084 57.8716 42.7225 57.1005 42.7225 56.3133V54.4456V47.4657C40.9524 47.4657 39.4612 47.2691 38.2488 46.8759C37.0357 46.4827 35.6763 45.8929 34.1698 45.1065C32.5962 44.3201 31.1545 43.7296 29.8439 43.3364C28.5318 42.9432 26.9269 42.7466 25.0265 42.7466C24.3049 42.7466 23.552 42.8129 22.7656 42.9432L22.8639 53.561C22.8639 55.7235 22.8304 57.2971 22.7656 58.2793C22.3062 64.834 20.5688 70.0766 17.5558 74.0093C16.0471 75.909 14.3112 77.6122 12.3445 79.1209C8.60911 82.0043 4.57812 83.7074 0.252969 84.2324L0.154663 84.0358C2.64563 83.6434 4.80894 83.0536 6.64313 82.2672C8.47877 81.4808 10.2161 80.3988 11.853 79.0226C15.0641 76.4005 17.1451 73.1399 18.0961 69.2407C19.0448 65.3423 19.521 60.6072 19.521 55.0354V50.3164V29.5738C19.521 28.4598 19.4227 27.6734 19.2261 27.2139L19.0303 26.6241C18.6371 25.7074 18.0793 25.2479 17.3592 25.2479V25.0514H24.8299V25.2479C24.2401 25.2479 23.7319 25.6259 23.3066 26.378C22.8792 27.1331 22.6673 27.902 22.6673 28.6891V30.5568C22.6673 35.7346 22.7001 39.601 22.7656 42.1568C23.552 42.0265 24.3049 41.9602 25.0265 41.9602C27.0573 41.9602 28.7458 42.1743 30.0893 42.5995C31.4319 43.0262 32.9559 43.6655 34.6613 44.5167C36.1678 45.3031 37.4777 45.8776 38.5932 46.2366C39.7073 46.5978 41.0827 46.7776 42.7225 46.7776L42.5259 31.4415C42.5259 29.2789 42.5579 27.7054 42.6242 26.7224C43.0822 20.1699 44.8188 14.9258 47.834 10.9931C49.4068 9.02716 51.1427 7.35536 53.0446 5.97991C56.5834 3.16273 60.6144 1.42538 65.1361 0.769329L65.2344 0.965923" fill="#FFE870"/>
<path d="M66.2866 58.574C66.7118 57.7883 66.9259 56.7405 66.9259 55.4284V29.6719C66.9259 28.3613 66.7118 27.312 66.2866 26.5256C65.8599 25.7392 65.3524 25.346 64.7626 25.346V25.1495H88.0616L88.848 28.7872H88.3565C87.7667 27.5428 86.6024 26.7397 84.8665 26.3778C83.1292 26.0188 80.6885 25.8375 77.5422 25.8375H73.8068H70.0707V42.3532H79.6072C80.7868 42.3532 81.785 42.1246 82.6057 41.6651C83.4241 41.2079 83.8348 40.7484 83.8348 40.2889H84.228V45.3029H83.8348V45.2046C83.8348 44.6811 83.4241 44.1896 82.6057 43.7294C81.785 43.2721 80.7868 43.0413 79.6072 43.0413H70.0707V59.2621H74.299H78.3293C81.5397 59.2621 83.9971 59.083 85.7017 58.7218C87.4056 58.3628 88.6179 57.5917 89.3395 56.4114H89.7327L89.0446 59.9502H64.7626V59.7536C65.3524 59.7536 65.8599 59.3604 66.2866 58.574" fill="#FFE870"/>
<path d="M116.099 47.1706C117.867 47.0395 119.146 46.8757 119.932 46.6791L121.21 46.3842C123.634 45.6633 125.339 44.467 126.322 42.7959C127.305 41.1241 127.797 38.88 127.797 36.0614C127.797 33.309 127.092 31.1311 125.683 29.5241C124.273 27.9193 122.455 26.8868 120.227 26.4273C118.785 26.0341 116.884 25.8375 114.525 25.8375H111.281V47.1706C112.788 47.2361 114.393 47.2361 116.099 47.1706V47.1706ZM135.268 59.3604V59.557C134.809 59.6895 134.416 59.7711 134.088 59.8031C133.76 59.8366 133.499 59.8519 133.302 59.8519C131.86 59.9844 130.565 59.8031 129.419 59.3116C128.272 58.8201 127.141 57.9849 126.027 56.8046L120.227 50.6111C118.588 48.9079 117.081 47.957 115.705 47.7604C114.655 47.8266 113.181 47.8587 111.281 47.8587V56.3131C111.281 56.8389 111.38 57.3791 111.576 57.9354C111.773 58.4932 112.033 58.9031 112.363 59.1638C112.624 59.4267 112.919 59.6233 113.247 59.7536H113.444V59.9502H105.972V59.7536C106.496 59.7536 106.987 59.4267 107.448 58.7706C107.904 57.8539 108.136 56.7405 108.136 55.4284V29.6719C108.136 28.5579 108.037 27.7715 107.841 27.312C107.381 26.0021 106.759 25.346 105.972 25.346V25.1495H113.444C118.686 25.1495 122.913 25.9693 126.125 27.6069C129.336 29.246 130.942 32.0311 130.942 35.9631C130.942 39.3059 130.041 41.9105 128.239 43.7789C126.436 45.6466 124.258 46.8429 121.702 47.3672L120.62 47.4655L120.031 47.5638C121.472 48.0895 122.749 48.9742 123.865 50.2179L129.566 56.4114C129.828 56.6743 130.27 57.149 130.894 57.8371C131.516 58.5245 132.089 58.9847 132.614 59.2133C133.138 59.4434 133.696 59.557 134.285 59.557L135.268 59.3604" fill="#FFE870"/>
<path d="M170.285 50.464C171.201 50.8251 172.283 51.0385 173.529 51.1026C171.3 44.8777 168.186 36.6519 164.189 26.4273C161.043 34.2272 158.356 41.1096 156.129 47.0723C156.719 46.8757 157.471 46.7774 158.389 46.7774C160.223 46.7774 161.747 46.974 162.961 47.3672C164.173 47.7604 165.566 48.3181 167.139 49.0383C168.319 49.6281 169.366 50.1043 170.285 50.464V50.464ZM179.673 58.7218C180.165 59.4099 180.607 59.7536 181 59.7536V59.9502H174.61V59.7536C174.938 59.7536 175.2 59.6233 175.396 59.3604C175.593 59.0997 175.691 58.7386 175.691 58.2791C175.691 57.7556 175.626 57.2968 175.495 56.9036C175.036 55.2653 174.446 53.5608 173.726 51.7906C172.35 51.7266 171.152 51.5132 170.137 51.1521C169.12 50.7924 167.958 50.2841 166.647 49.6281C165.205 48.9079 163.91 48.3669 162.764 48.0065C161.617 47.6468 160.158 47.4655 158.389 47.4655C157.864 47.4655 157.014 47.5638 155.834 47.7604C154.587 51.0385 153.572 53.954 152.786 56.5097C152.589 57.1658 152.491 57.7556 152.491 58.2791C152.491 59.2621 152.786 59.7536 153.376 59.7536V59.9502H149.541V59.7536C150.392 59.7536 151.213 58.6723 152 56.5097C153.376 52.3804 154.359 49.5298 154.949 47.957L155.146 47.2689C157.569 40.8467 160.453 33.4736 163.796 25.1495H167.04C172.94 40.4215 176.772 50.8412 178.543 56.4114C178.804 57.2641 179.182 58.033 179.673 58.7218" fill="#FFE870"/>
</svg>
